<svg width="267" height="48" viewBox="0 0 267 48" fill="none" xmlns="http://www.w3.org/2000/svg">
<g clip-path="url(#clip0_2001_269)">
<path d="M7.0827 29.0642C6.52441 30.1961 7.16155 31.5534 8.38852 31.8466C9.32688 32.0704 10.2936 31.5849 10.6595 30.6926C12.6135 25.9413 16.8338 22.6498 21.6723 21.7355C15.6904 20.6367 9.73219 23.6855 7.0827 29.0642Z" fill="#2DA7DF"/>
<path d="M12.0712 39.5268C12.3393 40.8542 13.7681 41.5903 15.003 41.037C15.9461 40.6145 16.4507 39.5678 16.1779 38.5699C14.7254 33.2543 16.159 27.6959 19.6695 23.7533C13.8675 26.7343 10.8016 33.2228 12.0712 39.5268Z" fill="#2DA7DF"/>
<path d="M7.26573 17.8969C6.10026 18.3967 5.69811 19.8485 6.44407 20.8748C7.01339 21.6582 8.07004 21.9184 8.9327 21.4785C13.5299 19.1265 18.903 19.3725 23.1942 21.8332C19.3462 17.0882 12.806 15.5229 7.26573 17.8985V17.8969Z" fill="#2DA7DF"/>
<path d="M41.3701 30.256C40.8228 29.2329 39.6116 28.7521 38.5156 29.1351C32.6772 31.1766 26.3421 30.0101 21.6519 26.3922C25.4447 32.649 32.9501 35.57 39.9081 33.6531C41.3732 33.2496 42.0861 31.5928 41.3685 30.2544L41.3701 30.256Z" fill="#2DA7DF"/>
<path d="M22.6154 43.5104C23.6264 44.4105 25.2113 44.1425 25.8674 42.9587C26.3673 42.0538 26.1418 40.9156 25.3249 40.2803C20.9706 36.9005 18.7768 31.5959 19.2168 26.3354C16.3671 32.2013 17.8132 39.2305 22.6154 43.5088V43.5104Z" fill="#2DA7DF"/>
<path d="M16.1824 11.0427C15.0469 10.6376 13.8294 11.3895 13.6843 12.586C13.5739 13.5003 14.1417 14.3642 15.028 14.6133C19.7514 15.9454 23.3345 19.5884 24.7334 24.0749C25.1213 18.2832 21.576 12.9675 16.1824 11.0443V11.0427Z" fill="#2DA7DF"/>
<path d="M34.7557 38.242C34.7557 37.1732 33.9782 36.2573 32.9232 36.095C27.293 35.2232 22.6501 31.5297 20.4075 26.5577C20.7749 33.2858 25.6087 38.9136 32.0952 40.3718C33.461 40.6792 34.7589 39.6419 34.7557 38.2436V38.242Z" fill="#2DA7DF"/>
<path d="M34.5964 2.46235C25.544 -1.99258 14.2678 -0.401984 6.80667 7.23728C-2.35932 16.6216 -2.25208 31.7394 7.04007 40.9992C16.419 50.3441 31.5999 50.3347 40.9678 40.9708C48.9289 33.0131 50.1291 20.859 44.5714 11.6339C44.092 10.8378 42.9029 10.934 42.5638 11.7978C42.5606 11.8073 42.5575 11.8152 42.5543 11.8246C42.4266 12.1525 42.455 12.5182 42.6363 12.8193C43.4123 14.1073 44.0604 15.4835 44.5604 16.929C44.4074 16.8092 44.2387 16.702 44.0541 16.6137C42.8603 16.0415 41.4204 16.4135 40.6697 17.5044C36.6687 23.3182 30.0465 26.512 23.2856 26.3402C30.9991 29.5482 39.8812 27.182 44.9988 20.7297C45.8599 19.6452 45.7385 18.1476 44.8569 17.2049C44.8569 17.2049 47.7477 19.601 45.729 22.9919C45.7432 23.2662 45.7527 23.5421 45.7558 23.8195C45.9025 35.8964 36.2271 45.8056 24.1451 45.9522C12.0631 46.0989 2.14955 36.4276 2.00288 24.3508C1.85937 12.2739 11.5348 2.36461 23.6168 2.218C27.2015 2.17386 30.5938 2.99517 33.5981 4.48803C34.3283 4.8506 35.191 4.35088 35.2335 3.53746C35.2572 3.08503 35.0049 2.66413 34.598 2.46392L34.5964 2.46235Z" fill="#2DA7DF"/>
<path d="M35.0427 8.13111V8.14056C34.3771 15.1398 30.5811 21.3981 24.9131 25.2714C33.0603 23.3576 39.1809 16.888 40.881 8.9934C41.1097 7.9309 40.7154 6.83057 39.8764 6.1401C39.8559 6.12276 39.8354 6.10542 39.8133 6.08966C37.9981 4.59995 35.2477 5.75388 35.0474 8.0917C35.0474 8.10588 35.0458 8.11849 35.0442 8.13111H35.0427Z" fill="#2DA7DF"/>
</g>
<path d="M67.9631 32.5H64.5881L70.733 15.0455H74.6364L80.7898 32.5H77.4148L72.7528 18.625H72.6165L67.9631 32.5ZM68.0739 25.6562H77.2784V28.196H68.0739V25.6562ZM88.3494 32.7557C87.0369 32.7557 85.9034 32.483 84.9489 31.9375C84 31.3864 83.2699 30.608 82.7585 29.6023C82.2472 28.5909 81.9915 27.4006 81.9915 26.0312C81.9915 24.6847 82.2472 23.5028 82.7585 22.4858C83.2756 21.4631 83.9972 20.6676 84.9233 20.0994C85.8494 19.5256 86.9375 19.2386 88.1875 19.2386C88.9943 19.2386 89.7557 19.3693 90.4716 19.6307C91.1932 19.8864 91.8295 20.2841 92.3807 20.8239C92.9375 21.3636 93.375 22.0511 93.6932 22.8864C94.0114 23.7159 94.1705 24.7045 94.1705 25.8523V26.7983H83.4403V24.7188H91.2131C91.2074 24.1278 91.0795 23.6023 90.8295 23.142C90.5795 22.6761 90.2301 22.3097 89.7812 22.0426C89.3381 21.7756 88.821 21.642 88.2301 21.642C87.5994 21.642 87.0455 21.7955 86.5682 22.1023C86.0909 22.4034 85.7188 22.8011 85.4517 23.2955C85.1903 23.7841 85.0568 24.321 85.0511 24.9062V26.7216C85.0511 27.483 85.1903 28.1364 85.4688 28.6818C85.7472 29.2216 86.1364 29.6364 86.6364 29.9261C87.1364 30.2102 87.7216 30.3523 88.392 30.3523C88.8409 30.3523 89.2472 30.2898 89.6108 30.1648C89.9744 30.0341 90.2898 29.8438 90.5568 29.5938C90.8239 29.3438 91.0256 29.0341 91.1619 28.6648L94.0426 28.9886C93.8608 29.75 93.5142 30.4148 93.0028 30.983C92.4972 31.5455 91.8494 31.983 91.0597 32.2955C90.2699 32.6023 89.3665 32.7557 88.3494 32.7557ZM96.7805 32.5V19.4091H99.772V21.5909H99.9084C100.147 20.8352 100.556 20.2528 101.136 19.8438C101.721 19.429 102.388 19.2216 103.138 19.2216C103.309 19.2216 103.499 19.2301 103.71 19.2472C103.925 19.2585 104.104 19.2784 104.246 19.3068V22.1449C104.116 22.0994 103.908 22.0597 103.624 22.0256C103.346 21.9858 103.076 21.9659 102.815 21.9659C102.252 21.9659 101.746 22.0881 101.298 22.3324C100.854 22.571 100.505 22.9034 100.249 23.3295C99.9936 23.7557 99.8658 24.2472 99.8658 24.804V32.5H96.7805ZM111.467 32.7557C110.189 32.7557 109.081 32.4744 108.143 31.9119C107.206 31.3494 106.479 30.5625 105.962 29.5511C105.45 28.5398 105.195 27.358 105.195 26.0057C105.195 24.6534 105.45 23.4687 105.962 22.4517C106.479 21.4347 107.206 20.6449 108.143 20.0824C109.081 19.5199 110.189 19.2386 111.467 19.2386C112.746 19.2386 113.854 19.5199 114.791 20.0824C115.729 20.6449 116.453 21.4347 116.964 22.4517C117.482 23.4687 117.74 24.6534 117.74 26.0057C117.74 27.358 117.482 28.5398 116.964 29.5511C116.453 30.5625 115.729 31.3494 114.791 31.9119C113.854 32.4744 112.746 32.7557 111.467 32.7557ZM111.484 30.2841C112.178 30.2841 112.757 30.0937 113.223 29.7131C113.689 29.3267 114.036 28.8097 114.263 28.1619C114.496 27.5142 114.612 26.7926 114.612 25.9972C114.612 25.196 114.496 24.4716 114.263 23.8239C114.036 23.1705 113.689 22.6506 113.223 22.2642C112.757 21.8778 112.178 21.6847 111.484 21.6847C110.774 21.6847 110.183 21.8778 109.712 22.2642C109.246 22.6506 108.896 23.1705 108.663 23.8239C108.436 24.4716 108.322 25.196 108.322 25.9972C108.322 26.7926 108.436 27.5142 108.663 28.1619C108.896 28.8097 109.246 29.3267 109.712 29.7131C110.183 30.0937 110.774 30.2841 111.484 30.2841ZM126.069 32.7557C124.762 32.7557 123.64 32.4688 122.702 31.8949C121.771 31.321 121.052 30.5284 120.546 29.517C120.046 28.5 119.796 27.3295 119.796 26.0057C119.796 24.6761 120.052 23.5028 120.563 22.4858C121.075 21.4631 121.796 20.6676 122.728 20.0994C123.665 19.5256 124.773 19.2386 126.052 19.2386C127.114 19.2386 128.055 19.4347 128.873 19.8267C129.697 20.2131 130.353 20.7614 130.842 21.4716C131.33 22.1761 131.609 23 131.677 23.9432H128.728C128.609 23.3125 128.325 22.7869 127.876 22.3665C127.433 21.9403 126.839 21.7273 126.094 21.7273C125.464 21.7273 124.91 21.8977 124.433 22.2386C123.955 22.5739 123.583 23.0568 123.316 23.6875C123.055 24.3182 122.924 25.0739 122.924 25.9545C122.924 26.8466 123.055 27.6136 123.316 28.2557C123.577 28.892 123.944 29.3835 124.415 29.7301C124.893 30.071 125.452 30.2415 126.094 30.2415C126.549 30.2415 126.955 30.1562 127.313 29.9858C127.677 29.8097 127.981 29.5568 128.225 29.2273C128.469 28.8977 128.637 28.4972 128.728 28.0256H131.677C131.603 28.9517 131.33 29.7727 130.859 30.4886C130.387 31.1989 129.745 31.7557 128.933 32.1591C128.12 32.5568 127.165 32.7557 126.069 32.7557ZM139.92 32.7557C138.642 32.7557 137.534 32.4744 136.597 31.9119C135.659 31.3494 134.932 30.5625 134.415 29.5511C133.903 28.5398 133.648 27.358 133.648 26.0057C133.648 24.6534 133.903 23.4687 134.415 22.4517C134.932 21.4347 135.659 20.6449 136.597 20.0824C137.534 19.5199 138.642 19.2386 139.92 19.2386C141.199 19.2386 142.307 19.5199 143.244 20.0824C144.182 20.6449 144.906 21.4347 145.418 22.4517C145.935 23.4687 146.193 24.6534 146.193 26.0057C146.193 27.358 145.935 28.5398 145.418 29.5511C144.906 30.5625 144.182 31.3494 143.244 31.9119C142.307 32.4744 141.199 32.7557 139.92 32.7557ZM139.938 30.2841C140.631 30.2841 141.21 30.0937 141.676 29.7131C142.142 29.3267 142.489 28.8097 142.716 28.1619C142.949 27.5142 143.065 26.7926 143.065 25.9972C143.065 25.196 142.949 24.4716 142.716 23.8239C142.489 23.1705 142.142 22.6506 141.676 22.2642C141.21 21.8778 140.631 21.6847 139.938 21.6847C139.227 21.6847 138.636 21.8778 138.165 22.2642C137.699 22.6506 137.349 23.1705 137.116 23.8239C136.889 24.4716 136.776 25.196 136.776 25.9972C136.776 26.7926 136.889 27.5142 137.116 28.1619C137.349 28.8097 137.699 29.3267 138.165 29.7131C138.636 30.0937 139.227 30.2841 139.938 30.2841ZM154.522 32.7557C153.244 32.7557 152.136 32.4744 151.198 31.9119C150.261 31.3494 149.533 30.5625 149.016 29.5511C148.505 28.5398 148.249 27.358 148.249 26.0057C148.249 24.6534 148.505 23.4687 149.016 22.4517C149.533 21.4347 150.261 20.6449 151.198 20.0824C152.136 19.5199 153.244 19.2386 154.522 19.2386C155.8 19.2386 156.908 19.5199 157.846 20.0824C158.783 20.6449 159.508 21.4347 160.019 22.4517C160.536 23.4687 160.795 24.6534 160.795 26.0057C160.795 27.358 160.536 28.5398 160.019 29.5511C159.508 30.5625 158.783 31.3494 157.846 31.9119C156.908 32.4744 155.8 32.7557 154.522 32.7557ZM154.539 30.2841C155.232 30.2841 155.812 30.0937 156.278 29.7131C156.744 29.3267 157.09 28.8097 157.317 28.1619C157.55 27.5142 157.667 26.7926 157.667 25.9972C157.667 25.196 157.55 24.4716 157.317 23.8239C157.09 23.1705 156.744 22.6506 156.278 22.2642C155.812 21.8778 155.232 21.6847 154.539 21.6847C153.829 21.6847 153.238 21.8778 152.766 22.2642C152.3 22.6506 151.951 23.1705 151.718 23.8239C151.491 24.4716 151.377 25.196 151.377 25.9972C151.377 26.7926 151.491 27.5142 151.718 28.1619C151.951 28.8097 152.3 29.3267 152.766 29.7131C153.238 30.0937 153.829 30.2841 154.539 30.2841ZM166.499 15.0455V32.5H163.413V15.0455H166.499ZM180.018 22.8693L177.205 23.1761C177.126 22.892 176.987 22.625 176.788 22.375C176.594 22.125 176.333 21.9233 176.004 21.7699C175.674 21.6165 175.271 21.5398 174.793 21.5398C174.151 21.5398 173.612 21.679 173.174 21.9574C172.742 22.2358 172.529 22.5966 172.535 23.0398C172.529 23.4205 172.668 23.7301 172.952 23.9688C173.242 24.2074 173.719 24.4034 174.384 24.5568L176.617 25.0341C177.856 25.3011 178.776 25.7244 179.379 26.304C179.987 26.8835 180.293 27.642 180.299 28.5795C180.293 29.4034 180.052 30.1307 179.575 30.7614C179.103 31.3864 178.447 31.875 177.606 32.2273C176.765 32.5795 175.799 32.7557 174.708 32.7557C173.106 32.7557 171.816 32.4205 170.839 31.75C169.862 31.0739 169.279 30.1335 169.092 28.929L172.1 28.6392C172.237 29.2301 172.526 29.6761 172.969 29.9773C173.413 30.2784 173.989 30.429 174.7 30.429C175.433 30.429 176.021 30.2784 176.464 29.9773C176.913 29.6761 177.137 29.304 177.137 28.8608C177.137 28.4858 176.992 28.1761 176.702 27.9318C176.418 27.6875 175.975 27.5 175.373 27.3693L173.14 26.9006C171.884 26.6392 170.955 26.1989 170.353 25.5795C169.751 24.9545 169.452 24.1648 169.458 23.2102C169.452 22.4034 169.671 21.7045 170.114 21.1136C170.563 20.517 171.185 20.0568 171.981 19.733C172.782 19.4034 173.705 19.2386 174.751 19.2386C176.285 19.2386 177.492 19.5653 178.373 20.2188C179.259 20.8722 179.808 21.7557 180.018 22.8693ZM184.761 37.4091C184.34 37.4091 183.951 37.375 183.593 37.3068C183.241 37.2443 182.96 37.1705 182.749 37.0852L183.465 34.6818C183.914 34.8125 184.315 34.875 184.667 34.8693C185.019 34.8636 185.329 34.7528 185.596 34.5369C185.869 34.3267 186.099 33.9744 186.286 33.4801L186.55 32.7727L181.803 19.4091H185.076L188.093 29.2955H188.229L191.255 19.4091H194.536L189.295 34.0852C189.05 34.7784 188.727 35.3722 188.323 35.8665C187.92 36.3665 187.425 36.7472 186.84 37.0085C186.261 37.2756 185.567 37.4091 184.761 37.4091ZM207.018 22.8693L204.205 23.1761C204.126 22.892 203.987 22.625 203.788 22.375C203.594 22.125 203.333 21.9233 203.004 21.7699C202.674 21.6165 202.271 21.5398 201.793 21.5398C201.151 21.5398 200.612 21.679 200.174 21.9574C199.742 22.2358 199.529 22.5966 199.535 23.0398C199.529 23.4205 199.668 23.7301 199.952 23.9688C200.242 24.2074 200.719 24.4034 201.384 24.5568L203.617 25.0341C204.856 25.3011 205.776 25.7244 206.379 26.304C206.987 26.8835 207.293 27.642 207.299 28.5795C207.293 29.4034 207.052 30.1307 206.575 30.7614C206.103 31.3864 205.447 31.875 204.606 32.2273C203.765 32.5795 202.799 32.7557 201.708 32.7557C200.106 32.7557 198.816 32.4205 197.839 31.75C196.862 31.0739 196.279 30.1335 196.092 28.929L199.1 28.6392C199.237 29.2301 199.526 29.6761 199.969 29.9773C200.413 30.2784 200.989 30.429 201.7 30.429C202.433 30.429 203.021 30.2784 203.464 29.9773C203.913 29.6761 204.137 29.304 204.137 28.8608C204.137 28.4858 203.992 28.1761 203.702 27.9318C203.418 27.6875 202.975 27.5 202.373 27.3693L200.14 26.9006C198.884 26.6392 197.955 26.1989 197.353 25.5795C196.751 24.9545 196.452 24.1648 196.458 23.2102C196.452 22.4034 196.671 21.7045 197.114 21.1136C197.563 20.517 198.185 20.0568 198.981 19.733C199.782 19.4034 200.705 19.2386 201.751 19.2386C203.285 19.2386 204.492 19.5653 205.373 20.2188C206.259 20.8722 206.808 21.7557 207.018 22.8693ZM216.38 19.4091V21.7955H208.854V19.4091H216.38ZM210.712 16.2727H213.798V28.5625C213.798 28.9773 213.86 29.2955 213.985 29.517C214.116 29.733 214.286 29.8807 214.496 29.9602C214.707 30.0398 214.94 30.0795 215.195 30.0795C215.388 30.0795 215.565 30.0653 215.724 30.0369C215.888 30.0085 216.013 29.983 216.099 29.9602L216.619 32.3722C216.454 32.429 216.218 32.4915 215.911 32.5597C215.61 32.6278 215.241 32.6676 214.803 32.679C214.031 32.7017 213.335 32.5852 212.715 32.3295C212.096 32.0682 211.604 31.6648 211.241 31.1193C210.883 30.5739 210.707 29.892 210.712 29.0739V16.2727ZM224.615 32.7557C223.303 32.7557 222.169 32.483 221.214 31.9375C220.266 31.3864 219.536 30.608 219.024 29.6023C218.513 28.5909 218.257 27.4006 218.257 26.0312C218.257 24.6847 218.513 23.5028 219.024 22.4858C219.541 21.4631 220.263 20.6676 221.189 20.0994C222.115 19.5256 223.203 19.2386 224.453 19.2386C225.26 19.2386 226.021 19.3693 226.737 19.6307C227.459 19.8864 228.095 20.2841 228.646 20.8239C229.203 21.3636 229.641 22.0511 229.959 22.8864C230.277 23.7159 230.436 24.7045 230.436 25.8523V26.7983H219.706V24.7188H227.479C227.473 24.1278 227.345 23.6023 227.095 23.142C226.845 22.6761 226.496 22.3097 226.047 22.0426C225.604 21.7756 225.087 21.642 224.496 21.642C223.865 21.642 223.311 21.7955 222.834 22.1023C222.357 22.4034 221.984 22.8011 221.717 23.2955C221.456 23.7841 221.322 24.321 221.317 24.9062V26.7216C221.317 27.483 221.456 28.1364 221.734 28.6818C222.013 29.2216 222.402 29.6364 222.902 29.9261C223.402 30.2102 223.987 30.3523 224.658 30.3523C225.107 30.3523 225.513 30.2898 225.876 30.1648C226.24 30.0341 226.555 29.8438 226.822 29.5938C227.089 29.3438 227.291 29.0341 227.428 28.6648L230.308 28.9886C230.126 29.75 229.78 30.4148 229.268 30.983C228.763 31.5455 228.115 31.983 227.325 32.2955C226.536 32.6023 225.632 32.7557 224.615 32.7557ZM233.046 32.5V19.4091H235.995V21.6335H236.148C236.421 20.8835 236.873 20.2983 237.504 19.8778C238.134 19.4517 238.887 19.2386 239.762 19.2386C240.648 19.2386 241.396 19.4545 242.004 19.8864C242.617 20.3125 243.049 20.8949 243.299 21.6335H243.435C243.725 20.9062 244.214 20.3267 244.901 19.8949C245.594 19.4574 246.415 19.2386 247.364 19.2386C248.569 19.2386 249.552 19.6193 250.313 20.3807C251.075 21.142 251.455 22.2528 251.455 23.7131V32.5H248.362V24.1903C248.362 23.3778 248.146 22.7841 247.714 22.4091C247.282 22.0284 246.754 21.8381 246.129 21.8381C245.384 21.8381 244.802 22.071 244.381 22.5369C243.967 22.9972 243.759 23.5966 243.759 24.3352V32.5H240.734V24.0625C240.734 23.3864 240.529 22.8466 240.12 22.4432C239.717 22.0398 239.188 21.8381 238.535 21.8381C238.092 21.8381 237.688 21.9517 237.325 22.179C236.961 22.4006 236.671 22.7159 236.455 23.125C236.239 23.5284 236.131 24 236.131 24.5398V32.5H233.046ZM264.932 22.8693L262.119 23.1761C262.04 22.892 261.901 22.625 261.702 22.375C261.509 22.125 261.247 21.9233 260.918 21.7699C260.588 21.6165 260.185 21.5398 259.707 21.5398C259.065 21.5398 258.526 21.679 258.088 21.9574C257.656 22.2358 257.443 22.5966 257.449 23.0398C257.443 23.4205 257.582 23.7301 257.866 23.9688C258.156 24.2074 258.634 24.4034 259.298 24.5568L261.531 25.0341C262.77 25.3011 263.69 25.7244 264.293 26.304C264.901 26.8835 265.207 27.642 265.213 28.5795C265.207 29.4034 264.966 30.1307 264.489 30.7614C264.017 31.3864 263.361 31.875 262.52 32.2273C261.679 32.5795 260.713 32.7557 259.622 32.7557C258.02 32.7557 256.73 32.4205 255.753 31.75C254.776 31.0739 254.193 30.1335 254.006 28.929L257.014 28.6392C257.151 29.2301 257.44 29.6761 257.884 29.9773C258.327 30.2784 258.903 30.429 259.614 30.429C260.347 30.429 260.935 30.2784 261.378 29.9773C261.827 29.6761 262.051 29.304 262.051 28.8608C262.051 28.4858 261.906 28.1761 261.616 27.9318C261.332 27.6875 260.889 27.5 260.287 27.3693L258.054 26.9006C256.798 26.6392 255.869 26.1989 255.267 25.5795C254.665 24.9545 254.366 24.1648 254.372 23.2102C254.366 22.4034 254.585 21.7045 255.028 21.1136C255.477 20.517 256.099 20.0568 256.895 19.733C257.696 19.4034 258.619 19.2386 259.665 19.2386C261.199 19.2386 262.406 19.5653 263.287 20.2188C264.173 20.8722 264.722 21.7557 264.932 22.8693Z" fill="#0B6791"/>
<defs>
<clipPath id="clip0_2001_269">
<rect width="48" height="48" fill="white"/>
</clipPath>
</defs>
</svg>
